<svg xmlns="http://www.w3.org/2000/svg" xmlns:xlink="http://www.w3.org/1999/xlink" width="21.25" height="23.5" viewBox="0 0 21.25 23.5">
  <metadata><?xpacket begin="﻿" id="W5M0MpCehiHzreSzNTczkc9d"?>
<x:xmpmeta xmlns:x="adobe:ns:meta/" x:xmptk="Adobe XMP Core 5.6-c138 79.159824, 2016/09/14-01:09:01        ">
   <rdf:RDF xmlns:rdf="http://www.w3.org/1999/02/22-rdf-syntax-ns#">
      <rdf:Description rdf:about=""/>
   </rdf:RDF>
</x:xmpmeta>
                                                                                                    
                                                                                                    
                                                                                                    
                                                                                                    
                                                                                                    
                                                                                                    
                                                                                                    
                                                                                                    
                                                                                                    
                                                                                                    
                                                                                                    
                                                                                                    
                                                                                                    
                                                                                                    
                                                                                                    
                                                                                                    
                                                                                                    
                                                                                                    
                                                                                                    
                                                                                                    
                           
<?xpacket end="w"?></metadata>
<defs>
    <style>
      .cls-1 {
        fill: #289be5;
        fill-rule: evenodd;
        filter: url(#filter);
      }
    </style>
    <filter id="filter" x="976.406" y="332.75" width="21.25" height="23.5" filterUnits="userSpaceOnUse">
      <feFlood result="flood" flood-color="#a8b0b9"/>
      <feComposite result="composite" operator="in" in2="SourceGraphic"/>
      <feBlend result="blend" in2="SourceGraphic"/>
    </filter>
  </defs>
  <path id="trash" class="cls-1" d="M994.859,336.664L993.183,354a2.236,2.236,0,0,1-2.235,2.237h-7.822A2.237,2.237,0,0,1,980.891,354l-1.676-17.336h15.644Zm-1.117,0L992.066,354a1.118,1.118,0,0,1-1.118,1.118h-7.822A1.118,1.118,0,0,1,982.009,354l-1.676-17.336h13.409Zm-9.5-3.915h5.587a2.236,2.236,0,0,1,2.235,2.237v1.678H982.009v-1.678A2.236,2.236,0,0,1,984.244,332.749Zm0,1.118h5.587a1.118,1.118,0,0,1,1.117,1.119v1.678h-7.822v-1.678A1.119,1.119,0,0,1,984.244,333.867Zm-7.263,2.8h20.113a0.559,0.559,0,0,1,0,1.118H976.981A0.559,0.559,0,0,1,976.981,336.664Zm6.7,3.355a0.559,0.559,0,0,1,.559.559l0.559,11.744a0.559,0.559,0,0,1-1.118,0l-0.559-11.744A0.559,0.559,0,0,1,983.685,340.019Zm3.352,0a0.559,0.559,0,0,1,.559.559v11.744a0.559,0.559,0,1,1-1.117,0V340.578A0.558,0.558,0,0,1,987.037,340.019Zm3.353,0a0.558,0.558,0,0,1,.558.559l-0.558,11.744a0.559,0.559,0,0,1-1.118,0l0.559-11.744A0.559,0.559,0,0,1,990.39,340.019Z" transform="translate(-976.406 -332.75)"/>
</svg>
